<?xml version="1.0" ?><!DOCTYPE svg  PUBLIC '-//W3C//DTD SVG 1.1//EN'  'http://www.w3.org/Graphics/SVG/1.1/DTD/svg11.dtd'><svg height="512px" style="enable-background:new 0 0 512 512;" version="1.1" viewBox="0 0 512 512" width="512px" xml:space="preserve" xmlns="http://www.w3.org/2000/svg" xmlns:xlink="http://www.w3.org/1999/xlink"><g id="_x31_73_x2C__Arrow_x2C__Loop_x2C__Loop_Arrow_x2C__Back"><path d="M382.259,122.999H86.809l18.439-18.596c3.905-3.905,3.905-10.315,0-14.221   c-3.905-3.905-10.237-3.944-14.143-0.039l-35.51,35.491c-0.022,0.022-0.041,0.037-0.062,0.059c-0.209,0.212-0.41,0.427-0.599,0.657   c-0.101,0.122-0.188,0.248-0.281,0.374c-0.102,0.136-0.207,0.268-0.302,0.409c-0.097,0.146-0.181,0.294-0.27,0.443   c-0.079,0.132-0.161,0.261-0.234,0.396c-0.08,0.149-0.147,0.302-0.219,0.454c-0.068,0.144-0.14,0.285-0.201,0.433   c-0.061,0.146-0.11,0.296-0.163,0.445c-0.057,0.159-0.118,0.316-0.167,0.478c-0.045,0.149-0.078,0.3-0.115,0.45   c-0.042,0.167-0.089,0.331-0.122,0.5c-0.034,0.17-0.054,0.343-0.079,0.514c-0.022,0.151-0.05,0.3-0.065,0.454   c-0.031,0.313-0.046,0.627-0.047,0.941c0,0.015-0.002,0.029-0.002,0.044s0.002,0.029,0.002,0.044   c0.001,0.314,0.017,0.628,0.047,0.941c0.015,0.153,0.043,0.302,0.065,0.454c0.025,0.171,0.044,0.344,0.079,0.514   c0.033,0.169,0.08,0.333,0.122,0.5c0.038,0.15,0.07,0.301,0.115,0.45c0.049,0.163,0.11,0.319,0.168,0.479   c0.053,0.149,0.102,0.298,0.163,0.445c0.061,0.148,0.133,0.29,0.201,0.434c0.072,0.152,0.139,0.305,0.219,0.454   c0.073,0.136,0.155,0.265,0.234,0.396c0.089,0.149,0.173,0.299,0.27,0.444c0.095,0.141,0.2,0.274,0.302,0.41   c0.094,0.125,0.181,0.254,0.281,0.376c0.189,0.23,0.39,0.45,0.599,0.662c0.021,0.022,0.04,0.047,0.062,0.069l35.51,35.51   c1.953,1.953,4.512,2.929,7.071,2.929s5.119-0.976,7.071-2.929c3.905-3.905,3.905-10.081,0-13.986l-18.439-18.282h295.45   c31.471,0,56.741,25.291,56.741,56.762v145.986c0,31.473-25.271,57.252-56.741,57.252h-94.694c-5.522,0-10,4.479-10,10   c0,5.523,4.478,10,10,10h94.694c42.499,0,76.741-34.752,76.741-77.252V199.76C459,157.261,424.758,122.999,382.259,122.999z" style="fill:#747371;"/></g><g id="Layer_1"/></svg>